{"title":"Two And A Half Men Dva ipo muskarca serijal 1","uid":7114743,"size":4596155483,"categoryP":"video","categoryS":"tv_shows","magnet":"?xt=urn:btih:0c18dcba8cbc47df66ae805f0b1864b130236cde&amp;dn=Two+And+A+Half+Men+Dva+ipo+muskarca+serijal+1&amp;tr=udp%3A%2F%2Ftracker.openbittorrent.com%3A80&amp;tr=udp%3A%2F%2Fopen.demonii.com%3A1337&amp;tr=udp%3A%2F%2Ftracker.coppersurfer.tk%3A6969&amp;tr=udp%3A%2F%2Fexodus.desync.com%3A6969","seeders":0,"leechers":1,"uploader":"homerruma","files":-1,"time":1332183551,"description":"Two And A Half Men Dva ipo muskarca serijal 1\n\nDVDrip\n\nUKLJUCUJE SRPSKI PREVOD\n\nGeneral\nComplete name                    : Two.And.A.Half.Men.S01E01.WS.DVDRip.XviD-SAiNTS.avi\nFormat                           : AVI\nFormat/Info                      : Audio Video Interleave\nFile size                        : 175 MiB\nDuration                         : 22mn 54s\nOverall bit rate                 : 1 066 Kbps\nWriting application              : Nandub v1.0rc2\nWriting library                  : Nandub build 1852/release\n\nVideo\nID                               : 0\nFormat                           : MPEG-4 Visual\nFormat profile                   : Advanced Simple@L5\nFormat settings, BVOP            : Yes\nFormat settings, QPel            : No\nFormat settings, GMC             : No warppoints\nFormat settings, Matrix          : Default (H.263)\nMuxing mode                      : Packed bitstream\nCodec ID                         : XVID\nCodec ID/Hint                    : XviD\nDuration                         : 22mn 54s\nBit rate                         : 921 Kbps\nWidth                            : 640 pixels\nHeight                           : 352 pixels\nDisplay aspect ratio             : 16:9\nFrame rate                       : 23.976 fps\nColor space                      : YUV\nChroma subsampling               : 4:2:0\nBit depth                        : 8 bits\nScan type                        : Progressive\nCompression mode                 : Lossy\nBits/(Pixel*Frame)               : 0.170\nStream size                      : 151 MiB (86%)\nWriting library                  : XviD 1.1.2 (UTC 2006-11-01)\n\nAudio\nID                               : 1\nFormat                           : MPEG Audio\nFormat version                   : Version 1\nFormat profile                   : Layer 3\nMode                             : Joint stereo\nMode extension                   : MS Stereo\nCodec ID                         : 55\nCodec ID/Hint                    : MP3\nDuration                         : 22mn 54s\nBit rate mode                    : Variable\nBit rate                         : 128 Kbps\nChannel(s)                       : 2 channels\nSampling rate                    : 48.0 KHz\nCompression mode                 : Lossy\nStream size                      : 21.7 MiB (12%)\nAlignment                        : Aligned on interleaves\nInterleave, duration             : 24 ms (0.58 video frame)\nInterleave, preload duration     : 133 ms\nWriting library                  : LAME3.96r\nEncoding settings                : -m j -V 4 -q 3 -lowpass 17.5 --abr 128\n","torrent":{"xt":"urn:btih:0c18dcba8cbc47df66ae805f0b1864b130236cde","amp;dn":"Two+And+A+Half+Men+Dva+ipo+muskarca+serijal+1","amp;tr":["udp%3A%2F%2Ftracker.openbittorrent.com%3A80","udp%3A%2F%2Fopen.demonii.com%3A1337","udp%3A%2F%2Ftracker.coppersurfer.tk%3A6969","udp%3A%2F%2Fexodus.desync.com%3A6969"],"infoHash":"0c18dcba8cbc47df66ae805f0b1864b130236cde","infoHashBuffer":{"type":"Buffer","data":[12,24,220,186,140,188,71,223,102,174,128,95,11,24,100,177,48,35,108,222]},"announce":[],"urlList":[]}}